<?xml version="1.0" encoding="utf-8"?>
<!-- Generator: Adobe Illustrator 18.0.0, SVG Export Plug-In . SVG Version: 6.00 Build 0)  -->
<!DOCTYPE svg PUBLIC "-//W3C//DTD SVG 1.1//EN" "http://www.w3.org/Graphics/SVG/1.1/DTD/svg11.dtd">
<svg version="1.1" id="Layer_1" xmlns="http://www.w3.org/2000/svg" xmlns:xlink="http://www.w3.org/1999/xlink" x="0px" y="0px"
	 viewBox="0 0 170.1 18.7" enable-background="new 0 0 170.1 18.7" xml:space="preserve">
<path fill="none" stroke="#676767" stroke-width="0.25" stroke-miterlimit="10" d="M167.5,10.7c0.4-3-3-3.3-3.9-1.9
	c0.4-4.9-4-6-6.8-6.2c-3.1-0.3-6.8,1.9-6.2,4.7c-0.6-1.2-2.1-1.5-3.6-0.9c-2.4,1-2.4,2.8-2,4.9c-0.6-1.5-3.2-1.2-3.5,0.7
	c-1.6-2.5-19.8-7.5-23.6,3.5c0.2-2.8-3.5-3-4.3-0.7c0.7-2.6-3.8-4.6-5.3-2.1c-0.2-2.7-3.2-5.8-8.2-5.5c-4.4,0.2-7.5,2.9-8,6.7
	c-0.2-2.9-7.3-2.9-7.6,1c0.1-2.2-3.3-4-5.3-2.5c0.4-3-3.5-3.6-4.3-2.2c0.4-4.9-3.5-7.1-6.3-7.5s-6.8,1.9-6.2,4.7
	c-0.6-1.2-2.1-1.5-3.6-0.9c-2.4,1-2.4,2.8-2,4.9c-0.6-1.5-3.2-1.2-3.5,0.7c-0.7-2.9-4.3-5.1-8.2-5.3c-6.8-0.5-11.4,4.7-11.4,7.2
	c-0.5-3.6-6.7-3.1-7.2-1.4c0.3-1,0-2.7-2-3.5c-2.4-1-4.9,0.7-5.7,2.5c-0.2-2.6-2-3.8-3.5-4.1c-4.9-0.8-6.2,3-6.1,5.1
	c-1-1.2-2.7-0.5-2.3,1.2C5.1,12,2,13.1,2,15"/>
</svg>
