<?xml version="1.0" encoding="utf-8"?>
<!-- Generator: Adobe Illustrator 18.0.0, SVG Export Plug-In . SVG Version: 6.00 Build 0)  -->
<!DOCTYPE svg PUBLIC "-//W3C//DTD SVG 1.1//EN" "http://www.w3.org/Graphics/SVG/1.1/DTD/svg11.dtd">
<svg version="1.1" id="Layer_1" xmlns="http://www.w3.org/2000/svg" xmlns:xlink="http://www.w3.org/1999/xlink" x="0px" y="0px"
	 viewBox="0 0 1234 229.7" enable-background="new 0 0 1234 229.7" xml:space="preserve">
<path fill="#FFFFFF" stroke="#787878" stroke-miterlimit="10" d="M3676.2-1151.3c-7.1,0-79.7,0-89.4,0c-9.7,0-12.1-13.4-7.1-19.2
	c5.4-5.7,12.8-4.7,16.1-1.7c-5.7-14.5-1.7-25.9,12.8-31.6c11.4-4.4,22.9,4.4,27.9,18.2c3.4-8.7,15.8-7.1,19.8-0.7
	c4,6.4,2.4,10.1-2.4,16.1c14.8-14.8,29.6-13.1,36,0C3693.7-1162,3684.3-1151.3,3676.2-1151.3z"/>
<path fill="#FFFFFF" stroke="#787878" stroke-width="4" stroke-miterlimit="10" d="M146.6,104.5c-9.7,0-112.3,0-126,0
	S3.4,85.7,10.8,77.6s18.2-6.4,22.9-2.4c-8.4-20.5-2.7-36.6,17.5-44.4c16.5-6.4,32.3,6.1,39.7,25.5c5-12.1,22.2-9.7,27.9-0.7
	c5.7,9.1,3.4,14.1-3.4,22.9c20.8-20.8,41.7-18.8,50.4-0.3C171.1,89.4,158,104.5,146.6,104.5z"/>
<path fill="#FFFFFF" stroke="#787878" stroke-width="4" stroke-miterlimit="10" d="M1137.8,198.6c7.4,0,61.4,0,71.8,0
	s12.9-14.2,7.4-20.4c-5.5-6.1-13.6-4.9-17.1-1.9c6.1-15.2-6.8-25.9-14.9-28.1c-8.1-2.6-22.6-0.6-28.1,14.2c-3.6-9.4-16.5-7.4-21-0.6
	c-4.2,6.8-3.2,14.2,2.6,17.1c-10.3-0.3-17.8-0.6-17.8,8.7C1120.6,197,1129.4,198.6,1137.8,198.6z"/>
</svg>
