<?xml version="1.0" encoding="utf-8"?>
<!-- Generator: Adobe Illustrator 18.0.0, SVG Export Plug-In . SVG Version: 6.00 Build 0)  -->
<!DOCTYPE svg PUBLIC "-//W3C//DTD SVG 1.1//EN" "http://www.w3.org/Graphics/SVG/1.1/DTD/svg11.dtd">
<svg version="1.1" id="Layer_1" xmlns="http://www.w3.org/2000/svg" xmlns:xlink="http://www.w3.org/1999/xlink" x="0px" y="0px"
	 viewBox="0 0 45 60" enable-background="new 0 0 45 60" xml:space="preserve">
<g>
	<path fill="#C0E5E6" stroke="#787878" stroke-miterlimit="10" d="M42.1,22.1C42.1,32.8,27.3,48,22.8,48C18.3,48,3.5,32.8,3.5,22.1
		c0-10.7,8.6-19.3,19.3-19.3C33.5,2.8,42.1,11.4,42.1,22.1z"/>
	<path fill="#C0E5E6" stroke="#787878" stroke-miterlimit="10" d="M34.7,22.1c0,10.7-9.1,25.9-11.9,25.9C20,48,10.9,32.8,10.9,22.1
		c0-10.7,5.3-19.3,11.9-19.3C29.4,2.8,34.7,11.4,34.7,22.1z"/>
	<path fill="#C0E5E6" stroke="#787878" stroke-miterlimit="10" d="M28.2,22.1c0,10.7-4.1,25.9-5.3,25.9c-1.2,0-5.3-15.2-5.3-25.9
		c0-10.7,2.4-19.3,5.3-19.3C25.8,2.8,28.2,11.4,28.2,22.1z"/>
	<path fill="#C0E5E6" stroke="#787878" stroke-miterlimit="10" d="M25.1,56.7c0,0.6-0.5,1.1-1.1,1.1h-2.8c-0.6,0-1.1-0.5-1.1-1.1V54
		c0-0.6,0.5-1.1,1.1-1.1h2.8c0.6,0,1.1,0.5,1.1,1.1V56.7z"/>
	<line fill="#C0E5E6" stroke="#787878" stroke-miterlimit="10" x1="18.5" y1="45.8" x2="21.3" y2="52.9"/>
	<line fill="#C0E5E6" stroke="#787878" stroke-miterlimit="10" x1="27.1" y1="46.1" x2="23.6" y2="52.8"/>
</g>
</svg>
