<?xml version="1.0" encoding="utf-8"?>
<!-- Generator: Adobe Illustrator 18.0.0, SVG Export Plug-In . SVG Version: 6.00 Build 0)  -->
<!DOCTYPE svg PUBLIC "-//W3C//DTD SVG 1.1//EN" "http://www.w3.org/Graphics/SVG/1.1/DTD/svg11.dtd">
<svg version="1.1" id="Layer_1" xmlns="http://www.w3.org/2000/svg" xmlns:xlink="http://www.w3.org/1999/xlink" x="0px" y="0px"
	 viewBox="0 0 34.9 47" enable-background="new 0 0 34.9 47" xml:space="preserve">
<g>
	<path fill="#F3BDAB" stroke="#787878" stroke-miterlimit="10" d="M32.2,16.7c0,7.9-11,19.3-14.4,19.3C14.5,36,3.4,24.6,3.4,16.7
		S9.9,2.3,17.8,2.3C25.8,2.3,32.2,8.8,32.2,16.7z"/>
	<path fill="#F3BDAB" stroke="#787878" stroke-miterlimit="10" d="M26.7,16.7c0,7.9-6.8,19.3-8.9,19.3C15.8,36,9,24.6,9,16.7
		s4-14.4,8.9-14.4C22.7,2.3,26.7,8.8,26.7,16.7z"/>
	<path fill="#F3BDAB" stroke="#787878" stroke-miterlimit="10" d="M21.8,16.7c0,7.9-3,19.3-4,19.3c-0.9,0-4-11.3-4-19.3
		s1.8-14.4,4-14.4C20,2.3,21.8,8.8,21.8,16.7z"/>
	<path fill="#F3BDAB" stroke="#787878" stroke-miterlimit="10" d="M19.5,42.5c0,0.4-0.4,0.8-0.8,0.8h-2.1c-0.4,0-0.8-0.4-0.8-0.8
		v-2.1c0-0.4,0.4-0.8,0.8-0.8h2.1c0.4,0,0.8,0.4,0.8,0.8V42.5z"/>
	<line fill="#F3BDAB" stroke="#787878" stroke-miterlimit="10" x1="14.6" y1="34.4" x2="16.7" y2="39.7"/>
	<line fill="#F3BDAB" stroke="#787878" stroke-miterlimit="10" x1="21" y1="34.6" x2="18.4" y2="39.6"/>
</g>
</svg>
