<?xml version="1.0" encoding="utf-8"?>
<!-- Generator: Adobe Illustrator 18.0.0, SVG Export Plug-In . SVG Version: 6.00 Build 0)  -->
<!DOCTYPE svg PUBLIC "-//W3C//DTD SVG 1.1//EN" "http://www.w3.org/Graphics/SVG/1.1/DTD/svg11.dtd">
<svg version="1.1" id="Layer_1" xmlns="http://www.w3.org/2000/svg" xmlns:xlink="http://www.w3.org/1999/xlink" x="0px" y="0px"
	 viewBox="0 0 70.7 74.8" enable-background="new 0 0 70.7 74.8" xml:space="preserve">
<g>
	<g>
		<line fill="none" stroke="#787878" stroke-miterlimit="10" x1="35.1" y1="18.3" x2="35.1" y2="4.9"/>
		<line fill="none" stroke="#787878" stroke-miterlimit="10" x1="35.1" y1="70.6" x2="35.1" y2="57.2"/>
		<line fill="none" stroke="#787878" stroke-miterlimit="10" x1="54.6" y1="37.8" x2="68" y2="37.8"/>
		<line fill="none" stroke="#787878" stroke-miterlimit="10" x1="2.3" y1="37.8" x2="15.7" y2="37.8"/>
	</g>
	<g>
		<line fill="none" stroke="#787878" stroke-miterlimit="10" x1="47.4" y1="25.5" x2="55.8" y2="17.1"/>
		<line fill="none" stroke="#787878" stroke-miterlimit="10" x1="14.5" y1="58.4" x2="22.9" y2="50"/>
		<line fill="none" stroke="#787878" stroke-miterlimit="10" x1="47.4" y1="50" x2="55.8" y2="58.4"/>
		<line fill="none" stroke="#787878" stroke-miterlimit="10" x1="14.5" y1="17.1" x2="22.9" y2="25.5"/>
	</g>
	<g>
		<line fill="none" stroke="#787878" stroke-miterlimit="10" x1="51.4" y1="31.9" x2="62.6" y2="27.8"/>
		<line fill="none" stroke="#787878" stroke-miterlimit="10" x1="7.7" y1="47.7" x2="18.9" y2="43.6"/>
		<line fill="none" stroke="#787878" stroke-miterlimit="10" x1="41" y1="54" x2="45.1" y2="65.2"/>
		<line fill="none" stroke="#787878" stroke-miterlimit="10" x1="25.2" y1="10.3" x2="29.3" y2="21.5"/>
	</g>
	<g>
		<line fill="none" stroke="#787878" stroke-miterlimit="10" x1="51.1" y1="44.4" x2="62.1" y2="49.1"/>
		<line fill="none" stroke="#787878" stroke-miterlimit="10" x1="8.2" y1="26.4" x2="19.2" y2="31.1"/>
		<line fill="none" stroke="#787878" stroke-miterlimit="10" x1="28.5" y1="53.7" x2="23.8" y2="64.7"/>
		<line fill="none" stroke="#787878" stroke-miterlimit="10" x1="46.5" y1="10.9" x2="41.8" y2="21.8"/>
	</g>
	<circle fill="#F6D6B5" stroke="#787878" stroke-miterlimit="10" cx="35.1" cy="37.5" r="19.1"/>
</g>
</svg>
